<?xml version="1.0" encoding="utf-8"?>
<!-- Generator: Adobe Illustrator 16.0.0, SVG Export Plug-In . SVG Version: 6.00 Build 0)  -->
<!DOCTYPE svg PUBLIC "-//W3C//DTD SVG 1.1//EN" "http://www.w3.org/Graphics/SVG/1.1/DTD/svg11.dtd">
<svg version="1.1" id="Lager_1" xmlns="http://www.w3.org/2000/svg" xmlns:xlink="http://www.w3.org/1999/xlink" x="0px" y="0px"
	 width="225px" height="70px" viewBox="0 0 225 70" enable-background="new 0 0 225 70" xml:space="preserve">
<g>
	<path fill="#FFFFFF" d="M68.395,44.061l1.982-2.846c0.973,0.756,1.908,1.081,2.844,1.081c2.918,0,4.395-2.449,4.395-7.131V24.646
		h-3.241v-3.241h9.869v3.241h-2.918v10.519c0,6.591-2.844,10.444-8.104,10.444C71.529,45.609,69.872,45.104,68.395,44.061z"/>
	<path fill="#FFFFFF" d="M96.741,45.465v-3.206h2.449l-1.404-4.609h-7.529l-1.368,4.609h2.846v3.206h-9.221v-3.206h2.881
		l6.16-19.665c0.253-0.794,0.9-1.298,1.764-1.298h3.134l6.591,20.963h2.667v3.206H96.741z M88.492,17.298
		c0-1.26,1.01-2.198,2.306-2.198c1.26,0,2.342,0.938,2.342,2.198c0,1.261-1.082,2.233-2.342,2.233
		C89.502,19.532,88.492,18.559,88.492,17.298z M96.128,32.318c-0.683-2.198-1.404-5.655-2.087-7.854h-0.109
		c-0.685,2.233-1.405,5.656-2.089,7.889l-0.648,2.377h5.655L96.128,32.318z M94.833,17.298c0-1.26,1.008-2.198,2.305-2.198
		c1.261,0,2.34,0.938,2.34,2.198c0,1.261-1.079,2.233-2.34,2.233C95.84,19.532,94.833,18.559,94.833,17.298z"/>
	<path fill="#FFFFFF" d="M123.645,45.465c-0.9,0-1.441-0.324-1.766-1.116l-4.214-9.365c-2.306-0.576-3.241-2.666-3.241-3.206h3.926
		c3.457,0,3.747-1.189,3.747-3.278c0-3.782-0.109-3.854-3.747-3.854h-4.357v17.613h3.276v3.206h-9.869v-3.206h2.881V24.646h-2.881
		v-3.241h10.697c7.493,0,7.745,2.628,7.745,6.303v1.152c0,1.694-0.145,5.295-4.395,6.052l3.493,7.347h1.945v3.206H123.645z"/>
	<path fill="#FFFFFF" d="M139.131,45.465h-10.158v-3.206h3.098V24.646h-3.098v-3.241h16.064l0.287,6.338h-3.637l-0.18-3.097h-5.764
		v6.663h7.131v3.243h-7.131v7.707h3.387V45.465z"/>
	<path fill="#FFFFFF" d="M156.561,45.465v-3.206h2.449l-1.404-4.609h-7.529l-1.367,4.609h2.846v3.206h-9.221v-3.206h2.881
		l6.16-19.665c0.253-0.794,0.9-1.298,1.764-1.298h3.134l6.591,20.963h2.668v3.206H156.561z M148.313,17.298
		c0-1.26,1.01-2.198,2.305-2.198c1.261,0,2.342,0.938,2.342,2.198c0,1.261-1.081,2.233-2.342,2.233
		C149.322,19.532,148.313,18.559,148.313,17.298z M155.947,32.318c-0.682-2.198-1.404-5.655-2.086-7.854h-0.109
		c-0.686,2.233-1.404,5.656-2.09,7.889l-0.648,2.377h5.656L155.947,32.318z M154.652,17.298c0-1.26,1.008-2.198,2.305-2.198
		c1.26,0,2.34,0.938,2.34,2.198c0,1.261-1.08,2.233-2.34,2.233C155.66,19.532,154.652,18.559,154.652,17.298z"/>
	<path fill="#FFFFFF" d="M179.323,39.126h3.565l-0.29,6.339h-15.63v-3.206h3.062v-17.65h-3.062v-3.204h9.832v3.204h-3.061v17.65
		h5.402L179.323,39.126z"/>
	<path fill="#FFFFFF" d="M196.826,39.126h3.565l-0.288,6.339h-15.633v-3.206h3.062v-17.65h-3.062v-3.204h9.834v3.204h-3.062v17.65
		h5.401L196.826,39.126z"/>
	<path fill="#FFFFFF" d="M215.878,45.465v-3.206h2.449l-1.406-4.609h-7.526l-1.37,4.609h2.848v3.206h-9.222v-3.206h2.881
		l6.159-19.665c0.252-0.794,0.9-1.298,1.767-1.298h3.132l6.592,20.963h2.666v3.206H215.878z M215.265,32.318
		c-0.684-2.198-1.403-5.655-2.089-7.854h-0.108c-0.685,2.233-1.405,5.656-2.089,7.889l-0.648,2.377h5.655L215.265,32.318z"/>
</g>
<path fill="#FFFFFF" d="M0,0v40.182c0,16.344,13.259,29.595,29.621,29.595c16.352,0,29.611-13.251,29.611-29.595V0H0z
	 M57.261,39.829c0,15.256-12.377,27.626-27.64,27.626c-15.273,0-27.65-12.37-27.65-27.626V2.321h55.291V39.829z"/>
<g>
	<path fill="#FFFFFF" d="M30.515,18.342c0.546,0.135,1.554,0.269,1.688,0c0.054-0.377-0.04-0.566-0.404-0.683
		c-0.956-1.766-3.545-2.176-5.177-3.405l-0.139,1.36c1.362,1.23-0.548,2.591,0.818,3.954c0.818-0.816,3.339,0.216,4.364-0.41
		C31.614,18.732,30.474,19.306,30.515,18.342z M27.325,16.236l-0.134-0.412c0.134-0.136,0.679-0.681,0.953-0.271
		C28.144,15.961,27.733,16.236,27.325,16.236z"/>
	<g>
		<path fill="#FFFFFF" d="M45.925,53.667c-0.228,0-0.223-0.024-0.267-0.058c-0.209,0.318-0.385,0.739-0.496,1.065
			c0.414,0.406,0.96-0.069,1.787,0.047c0.829,0.126,1.079-0.503,1.187-1.021L45.925,53.667z"/>
		<path fill="#FFFFFF" d="M49.307,49.206c-0.601-2.433,1.804-5.51-0.734-7.639c-0.652,0.585-1.054-0.226-1.914,0.405
			c0.261,0.513,0.416,0.688,0.687,1.166c1.246,2.195,1,4.899,0.683,7.356c-0.093,1.116-1.137,1.797-1.964,2.636
			c0,0,2.15,0.037,2.164,0.04c0.02-0.097,0.042-0.179,0.076-0.229c0.13-0.199,0.443-0.224,0.724-0.155
			c0.146,0.037,0.146,0.126,0.232,0.119c0.047-0.005,0.102-0.075,0.139-0.168C49.692,52.016,49.481,49.909,49.307,49.206z"/>
	</g>
	<g>
		<path fill="#FFFFFF" d="M9.335,47.619c-0.02,0.013-0.041,0.023-0.062,0.031c-0.016,0.005-0.031,0.008-0.047,0.012
			c0.062,0.439,0.121,0.851,0.187,1.298l0.551-0.238c1.315-0.554,1.069-1.413,0.917-2.232L9.335,47.619z"/>
		<path fill="#FFFFFF" d="M8.956,36.635c0.83-0.655,2.051,0.313,3.008,0.313c-0.579-0.779-0.189-1.477-0.342-1.949
			c-0.146-0.45-0.35-0.837-0.35-0.837c-0.814-0.279-2.63-0.621-3.874,0.119C6.826,34.62,6.85,35.34,6.99,35.911
			c1.296,3.995,1.62,7.322,2.157,11.183l1.513-1.106c0.041-0.029,0.085-0.04,0.132-0.046c-0.019-0.161-0.026-0.325-0.006-0.488
			c0.13-0.273,0.679-0.135,0.536-0.548C9.286,42.446,9.261,40.342,8.956,36.635z"/>
	</g>
	<path fill="#FFFFFF" d="M22.151,45.039c0.084-0.913,0.281-1.684,0.527-2.304c-0.166-1.087-1.359-0.438-1.76-1.146
		c-2.068-0.247-0.741,1.355-0.479,2.235c0.687,2.062,0.568,4.764,0.425,6.808c-0.017,0.663-0.822,1.64-1.497,2.361
		c0,0,2.002,0.17,2.006,0.164c0.124-0.224,0.293-0.365,0.577-0.367c0.045,0,0.118,0.007,0.129-0.062
		c0.007-0.042,0.007-0.072,0.001-0.148C21.823,49.328,22.078,45.936,22.151,45.039z"/>
	<path fill="#FFFFFF" d="M23.076,13.302c0,0.271-0.271,0.679,0.14,0.815c0.366-0.222,0.485-0.781,0.356-1.104
		c-0.1-0.25,0-0.273,0-0.273c0.544,0,1.275-0.122,1.692,0.287c1.633,1.5,0.14,2.729,1.228,4.227
		c-1.156,1.25,0.669,2.495,0.183,3.211c-0.064,0.093-0.129,0.204-0.164,0.282c-0.916,2.097-0.065,3.751-1.884,3.648
		c0.056,1.142-2.126,2.166-1.137,2.939c0.317-0.714,0.96-1.646,1.54-1.768c0.676,0,1.049,1.36,2.002,0.948
		c0.957,1.093,2.322-0.679,3.819,0.412c1.227-0.142,2.041-0.954,3.542,0c1.504-0.819,2.732-0.819,3.952-0.142
		c2.184-0.27,2.866,0.687,4.638,0c2.049,1.364,3.14-0.135,4.912,1.779c1.2,0.367,1.173,0.811,1.515,1.233
		c0.343,0.426,0.426,0.32,0.703,0.719c0.201,0.29,0.154,0.856,0.408,1.453c0.401,0.943,0.729,2.111,0.229,2.856
		c-0.12,0.369,0.334,0.979-0.235,1.296c-0.254,0.142-0.496,0.036-0.496,0.036c0-0.549,0.325-1.332-0.217-1.742
		c-0.541,0.41-0.155,0.89-0.462,1.753c-0.318,1.121,0.381,1.375,0.332,2.322c-0.032,0.599-0.52,0.457-0.52,1.044
		c0,0.658-0.353,0.433-0.576,0.739c0.408,0.541-0.27,0.68-0.545,0.958c-1.775-0.552-1.775,1.094-3.132,0.271
		c-0.278-0.271-0.682-0.549-1.096-0.953c-0.544,0.545-0.949,1.358-1.637,1.225c-1.773-1.225-2.728,1.225-5.038-0.959
		c-1.497,1.367-2.867-0.541-4.232,0.279c-0.359,0.192-0.811,0.673-2.658,0.027c-0.683,0-1.734,0.419-2.551-0.269
		c-2.05,0.958-2.279-0.713-3.92,0.379c-0.773,0.434-1.396,0.347-2.002,0.212c-0.55-0.121-0.409-0.535-1.149-0.512
		c-1.228,0.039-1.225-0.401-2.3-0.117c-1.366-1.766-3.272-0.404-3.955-2.445c-0.551-0.823-2.454-1.228-2.185-2.862
		c0.135-1.497-1.771-2.725-0.957-3.817c-0.948-1.767-0.405-2.857,0.414-4.491c-0.415-0.681-0.798-1.544,0.135-2.589
		c1.359-1.459-0.2-2.215,2.454-4.498c-0.21-1.075,0.56-2.739,1.91-3.133l0,0c0.278-0.957,1.548-2.528,2.454-2.452
		c0.528,0.044,0.659-0.645,0.822-0.679c0.228-0.047,0.54,0.679,0.54,0.679c0.548-0.546,0.413-1.5,0.548-2.181
		c0.131-0.679,0.4-0.953,1.088-0.679C22.266,12.074,22.941,12.486,23.076,13.302z"/>
	<path fill="#FFFFFF" d="M19.492,41.42c-0.783,0.606,0.256,2.213,0.256,2.213L9.98,53.815l-1.882-1.807L18.101,41.55
		C18.101,41.55,18.63,41.161,19.492,41.42z"/>
	<path fill="#FFFFFF" d="M51.887,22.594c-0.694,0.262-1.511,0.127-2.096-0.424l-4.911-4.714l3.121-3.261l2.331,2.235
		c0.575,0.552,0.751,1.362,0.513,2.071l0.305,0.292l3.392-3.529l-0.303-0.296c-0.703,0.27-1.517,0.127-2.096-0.424l-2.332-2.235
		l2.241-2.327c0.542-0.572,1.366-0.746,2.063-0.509l0.295-0.305L50.88,5.782l-0.293,0.301c0.262,0.698,0.127,1.515-0.426,2.091
		l-2.235,2.329L45.59,8.272c-0.569-0.552-0.746-1.366-0.504-2.075l-0.306-0.29L41.39,9.442l0.301,0.291
		c0.707-0.269,1.521-0.13,2.093,0.423l2.334,2.233l-3.124,3.257l-4.808-4.605c-0.576-0.55-0.748-1.362-0.513-2.072l-0.301-0.292
		l-3.396,3.534l0.31,0.291c0.69-0.268,1.514-0.125,2.084,0.422l4.813,4.605l-7.921,8.242c0,0,0.93-0.036,1.22,0.449
		c1.089-0.86,2.51-0.55,2.51-0.55l6.077-6.331l4.916,4.714c0.572,0.551,0.751,1.363,0.513,2.072l0.302,0.29l3.394-3.533
		L51.887,22.594z"/>
	<path fill="#FFFFFF" d="M31.399,53.76c-0.022,0-0.044-0.004-0.065-0.011c-0.003,0-0.006-0.001-0.009-0.002
		c-0.021-0.006-0.04-0.014-0.057-0.024c-0.195,0.379-0.34,0.669-0.416,0.99c0,0,0.392,0.156,0.768,0.07
		c0.653-0.149,0.914-0.001,1.331-0.07c0.245-0.041,0.56-0.571,0.774-1.019l-2.318,0.064C31.404,53.759,31.401,53.76,31.399,53.76z"
		/>
	<g>
		<path fill="#FFFFFF" d="M41.759,42.461c-0.122-0.772-1.477-0.368-1.776-0.133c-0.188,0.149-0.22,0.315-0.183,0.692
			c0.304,3.013-2.286,4.818-4.377,6.354c-0.767,0.563-1.618,1.122-1.848,1.936c-0.657,0.416-1.425,1.137-1.986,1.907
			c0,0,1.777-0.001,2.282,0.002c0.447,0.002,0.638,0.212,0.914,0.123c0.079-0.024,0.124-0.036,0.1-0.243
			c-0.108-0.966,0.688-2.189,1.012-2.467c1.907-1.91,3.352-3.372,5.179-4.769C42.163,45.18,41.894,43.814,41.759,42.461z"/>
	</g>
	<path fill="#FFFFFF" d="M19.112,53.51c-0.06-0.004-0.113-0.028-0.155-0.066c-0.293,0.339-0.635,0.804-0.85,1.233
		c0,0,0.221,0.116,0.875,0.029c0.802-0.105,0.842,0.117,1.464-0.04c0.197-0.051,0.558-0.51,0.718-0.985L19.112,53.51z"/>
</g>
</svg>
